<?xml version="1.0" encoding="UTF-8" standalone="no"?>
<svg
   width="64.006401"
   height="63.984814"
   viewBox="0 0 39.797313 39.78389"
   version="1.1"
   id="svg1128"
   inkscape:version="1.2.2 (b0a8486541, 2022-12-01)"
   sodipodi:docname="favicon.svg"
   xml:space="preserve"
   xmlns:inkscape="http://www.inkscape.org/namespaces/inkscape"
   xmlns:sodipodi="http://sodipodi.sourceforge.net/DTD/sodipodi-0.dtd"
   xmlns="http://www.w3.org/2000/svg"
   xmlns:svg="http://www.w3.org/2000/svg"
   xmlns:rdf="http://www.w3.org/1999/02/22-rdf-syntax-ns#"
   xmlns:cc="http://creativecommons.org/ns#"
   xmlns:dc="http://purl.org/dc/elements/1.1/"><defs
     id="defs1122" /><sodipodi:namedview
     id="base"
     pagecolor="#ffffff"
     bordercolor="#666666"
     borderopacity="1.0"
     inkscape:pageopacity="0.0"
     inkscape:pageshadow="2"
     inkscape:zoom="5.4549548"
     inkscape:cx="19.981834"
     inkscape:cy="41.888523"
     inkscape:document-units="mm"
     inkscape:current-layer="layer1"
     showgrid="false"
     fit-margin-top="0"
     fit-margin-left="0"
     fit-margin-right="0"
     fit-margin-bottom="0"
     units="px"
     inkscape:window-width="1920"
     inkscape:window-height="1003"
     inkscape:window-x="0"
     inkscape:window-y="0"
     inkscape:window-maximized="1"
     inkscape:document-rotation="0"
     inkscape:showpageshadow="2"
     inkscape:pagecheckerboard="0"
     inkscape:deskcolor="#d1d1d1" /><metadata
     id="metadata1125"><rdf:RDF><cc:Work
         rdf:about=""><dc:format>image/svg+xml</dc:format><dc:type
           rdf:resource="http://purl.org/dc/dcmitype/StillImage" /><dc:title /></cc:Work></rdf:RDF></metadata><g
     inkscape:label="Layer 1"
     inkscape:groupmode="layer"
     id="layer1"
     transform="translate(-273.06438,-178.45154)"><path
       style="opacity:1;fill:#00b4ff;fill-opacity:1;stroke:#00abf5;stroke-width:0.35015;stroke-dasharray:none;stroke-opacity:1;paint-order:normal"
       d="m 296.82362,217.85108 c -1.87403,-0.50354 -3.33465,-2.02219 -3.72555,-3.87354 -0.24975,-1.18283 -0.0874,-2.10857 0.73935,-4.21645 0.69519,-1.77239 0.77284,-2.16251 0.77284,-3.88246 0,-1.30098 -0.0207,-1.52103 -0.18888,-2.00735 -0.3021,-0.87357 -0.86801,-1.33219 -1.5243,-1.23529 -0.35642,0.0527 -0.49006,0.37805 -0.71453,1.74003 -0.26348,1.59864 -0.6303,2.72134 -1.33433,4.08389 -2.09835,4.06113 -5.12949,6.06978 -8.61032,5.70583 -4.02669,-0.42102 -7.44611,-3.73772 -8.62987,-8.37061 -0.20422,-0.79926 -0.32969,-2.60475 -0.21759,-3.13102 0.67474,-3.16774 3.48892,-4.93008 6.48314,-4.05997 0.29849,0.0868 1.01789,0.34824 1.59867,0.58111 1.78994,0.71768 2.21489,0.80428 3.95367,0.80576 1.3445,9.9e-4 1.56021,-0.0185 2.04671,-0.1868 0.83375,-0.28837 1.28711,-0.80807 1.23517,-1.4159 -0.0401,-0.47019 -0.26788,-0.57774 -1.73724,-0.82055 -1.50563,-0.24882 -2.64127,-0.60608 -3.85228,-1.2119 -2.72369,-1.36256 -4.64207,-3.21957 -5.49754,-5.32172 -0.3579,-0.87948 -0.45511,-1.45352 -0.45539,-2.68925 -4e-4,-1.76995 0.40672,-3.08444 1.43348,-4.62834 1.95595,-2.94107 5.67377,-4.97347 9.09788,-4.97347 0.54915,0 1.10553,0.0511 1.40628,0.12902 1.73318,0.44935 3.13338,1.76159 3.64869,3.41947 0.21614,0.69538 0.25066,1.99228 0.0723,2.71356 -0.0625,0.25257 -0.34855,1.06038 -0.63571,1.79512 -0.76673,1.9618 -0.90235,2.63766 -0.85749,4.27296 0.0381,1.38804 0.13329,1.83807 0.51105,2.41559 0.22755,0.34789 0.7001,0.61718 1.08304,0.61718 0.43767,0 0.59994,-0.26169 0.76481,-1.23342 0.36384,-2.1445 0.47816,-2.56504 1.03868,-3.82084 1.50002,-3.36066 3.8957,-5.69497 6.51972,-6.3527 0.75218,-0.18854 2.5214,-0.21008 3.29802,-0.0401 3.4458,0.75397 6.3255,3.57966 7.55348,7.41178 0.40968,1.2785 0.53157,2.10674 0.48583,3.30141 -0.0427,1.11578 -0.22487,1.72578 -0.78527,2.62964 -0.66014,1.06475 -1.80135,1.91593 -2.95411,2.20335 -0.62208,0.15512 -2.00383,0.13774 -2.6325,-0.0331 -0.27687,-0.0752 -1.06589,-0.35826 -1.75338,-0.62895 -1.91298,-0.75321 -2.1649,-0.80499 -3.92176,-0.80607 -1.35088,-8.2e-4 -1.55883,0.0185 -2.05583,0.19021 -0.86667,0.29958 -1.32518,0.86763 -1.22855,1.52207 0.0519,0.35146 0.37963,0.48657 1.71834,0.70839 1.56767,0.25974 2.35753,0.50243 3.67154,1.1281 2.52383,1.20173 4.46884,2.92147 5.42846,4.79972 1.52715,2.98908 0.71564,6.81007 -2.02378,9.52888 -1.64744,1.63505 -3.91211,2.81767 -6.20824,3.24195 -0.87522,0.16173 -2.40525,0.15909 -3.01666,-0.005 z m -2.9476,-17.66285 c 0.69322,-0.32675 1.12667,-1.02848 1.12667,-1.82406 0,-2.22339 -3.04991,-2.81258 -3.92131,-0.75752 -0.15984,0.37695 -0.15847,1.13134 0.003,1.51723 0.46576,1.11471 1.69266,1.58245 2.79187,1.06435 z"
       id="path1141"
       inkscape:connector-curvature="0" /></g></svg>
